HIERARCHY
ROOT ui
{
	 OFFSET 0 0 0
	 CHANNELS 3 XPosition YPosition Z Position
	 EndSite
	 {
	 OFFSET 0 -1 0
	 }
}
ROOT li
{
	 OFFSET 0 0 0
	 CHANNELS 3 XPosition YPosition Z Position
	 EndSite
	 {
	 OFFSET 0 -1 0
	 }
}
ROOT ul
{
	 OFFSET 0 0 0
	 CHANNELS 3 XPosition YPosition Z Position
	 EndSite
	 {
	 OFFSET 0 -1 0
	 }
}
ROOT ll
{
	 OFFSET 0 0 0
	 CHANNELS 3 XPosition YPosition Z Position
	 EndSite
	 {
	 OFFSET 0 -1 0
	 }
}
ROOT tt
{
	 OFFSET 0 0 0
	 CHANNELS 3 XPosition YPosition Z Position
	 EndSite
	 {
	 OFFSET 0 -1 0
	 }
}
ROOT tb
{
	 OFFSET 0 0 0
	 CHANNELS 3 XPosition YPosition Z Position
	 EndSite
	 {
	 OFFSET 0 -1 0
	 }
}
ROOT td
{
	 OFFSET 0 0 0
	 CHANNELS 3 XPosition YPosition Z Position
	 EndSite
	 {
	 OFFSET 0 -1 0
	 }
}
ROOT v
{
	 OFFSET 0 0 0
	 CHANNELS 3 XPosition YPosition Z Position
	 EndSite
	 {
	 OFFSET 0 -1 0
	 }
}
ROOT bn
{
	 OFFSET 0 0 0
	 CHANNELS 3 XPosition YPosition Z Position
	 EndSite
	 {
	 OFFSET 0 -1 0
	 }
}
MOTION
Frames: 24
Frame Time: 0.002
0.005931107044219971	0.006430397987365723	0		0.4174377136230469	-2.33281298828125	0		-0.9642584838867188	0.3951837158203125	0		-0.624971435546875	-2.50952783203125	0		1.780770263671875	-0.06401930999755859	0		3.313008056640625	0.44235125732421876	0		4.72534619140625	0.18331211853027343	0		5.919216796875	0.33387078857421876	0		-0.22812161254882812	5.9615166015625	0		
-1.203019991517067E-4	-5.354179739952088E-4	0		0.40362258911132814	-2.328598876953125	0		-0.9003718872070312	0.38459317016601563	0		-0.6037978515625	-2.50612109375	0		1.775021728515625	-0.058005950927734376	0		3.316518798828125	0.4591365356445313	0		4.720646484375	0.19127290344238282	0		5.92166796875	0.3576762084960938	0		-0.2421829071044922	5.95174072265625	0		
5.834000185132027E-6	-6.747959852218628E-4	0		0.3949404602050781	-2.3195341796875	0		-0.9731990356445313	0.38716705322265627	0		-0.6376149291992188	-2.50246142578125	0		1.7803328857421874	-0.050280315399169925	0		3.29828515625	0.48640377807617186	0		4.72182080078125	0.1930670928955078	0		5.916982421875	0.3801090087890625	0		-0.22874972534179688	5.962296875	0		
0.0019582819938659666	-0.008888348579406739	0		0.41363555908203126	-2.3381455078125	0		-0.973055908203125	0.38700604248046877	0		-0.6395416259765625	-2.504578125	0		1.775614013671875	-0.04434868240356445	0		3.2936875	0.4973216247558594	0		4.7261015625	0.19876429748535157	0		5.93106005859375	0.34952175903320315	0		-0.22660821533203124	5.96008349609375	0		
2.9739201068878173E-4	-0.00103986394405365	0		0.3670870361328125	-2.324249267578125	0		-0.9519539794921875	0.38432662963867187	0		-0.6363154296875	-2.500840576171875	0		1.797852783203125	-0.04107298278808594	0		3.342086669921875	0.5069766235351563	0		4.73457958984375	0.21234323120117188	0		5.93489990234375	0.366200927734375	0		-0.2112072296142578	5.9685361328125	0		
0.006620211124420166	0.005598188877105713	0		0.4134080505371094	-2.317549072265625	0		-0.9476984252929688	0.3880180969238281	0		-0.6320775756835938	-2.497151123046875	0		1.7824619140625	-0.021934797286987304	0		3.319397216796875	0.5132725830078125	0		4.73992724609375	0.21997535705566407	0		5.92103662109375	0.39596841430664065	0		-0.22719253540039064	5.96069384765625	0		
6.250600218772888E-4	-0.0014992419481277466	0		0.3747378845214844	-2.309880615234375	0		-0.9633848876953125	0.39415570068359373	0		-0.6360154418945313	-2.50129296875	0		1.779191162109375	0.0019037410020828246	0		3.328423828125	0.5068076782226563	0		4.73797900390625	0.21476043701171876	0		5.9221982421875	0.35564288330078125	0		-0.22699618530273438	5.96045556640625	0		
7.943000197410584E-4	-0.0017552529573440553	0		0.40082138061523437	-2.313745361328125	0		-0.951451416015625	0.3836252746582031	0		-0.63690185546875	-2.503522705078125	0		1.7793604736328126	0.0016412160396575928	0		3.3269931640625	0.5235816040039063	0		4.73333740234375	0.22260185241699218	0		5.91754443359375	0.3779293518066406	0		-0.22778143310546875	5.96122314453125	0		
-0.01287062168121338	0.005301359176635742	0		0.34911480712890625	-2.307800048828125	0		-0.9512830200195312	0.3833584289550781	0		-0.6367401123046875	-2.503790283203125	0		1.816494384765625	-4.971440136432647E-4	0		3.3502958984375	0.5287653198242187	0		4.74185400390625	0.23713082885742187	0		5.92139599609375	0.39453347778320313	0		-0.22662405395507812	5.959931640625	0		
0.0011239880323410034	-0.002302967071533203	0		0.4129770202636719	-2.3215732421875	0		-0.9411700439453125	0.38084701538085936	0		-0.6586672973632812	-2.507552734375	0		1.768973876953125	0.013342185974121094	0		3.34402197265625	0.5526412963867188	0		4.7551533203125	0.24254277038574218	0		5.9323740234375	0.4107317199707031	0		-0.21220387268066407	5.97032275390625	0		
-0.008484728813171387	0.007642710208892822	0		0.356640625	-2.299530517578125	0		-0.935923583984375	0.38444256591796877	0		-0.6353763427734375	-2.502378662109375	0		1.8012366943359375	0.017308292388916017	0		3.375284423828125	0.5566322631835937	0		4.761142578125	0.23512315368652345	0		5.9287529296875	0.3931543273925781	0		-0.22630825805664062	5.9593671875	0		
0.0014244790077209473	-0.002878438949584961	0		0.40554541015625	-2.310962890625	0		-0.9408709716796875	0.38026812744140626	0		-0.6362702026367187	-2.504646240234375	0		1.7916893310546875	0.030253576278686523	0		3.38370751953125	0.5681610107421875	0		4.7585224609375	0.24491351318359375	0		5.93296826171875	0.375142578125	0		-0.22617848205566407	5.95907666015625	0		
0.0015613490343093872	-0.003170828104019165	0		0.4077625427246094	-2.308301025390625	0		-0.94073583984375	0.3799714050292969	0		-0.6083399658203125	-2.514593994140625	0		1.8149835205078124	0.03642963027954101	0		3.375148193359375	0.5810911254882812	0		4.771794921875	0.25033740234375	0		5.9367978515625	0.39177737426757814	0		-0.22606910705566408	5.958783203125	0		
-0.008074155807495117	0.006767292976379394	0		0.37217288208007815	-2.296752685546875	0		-1.0086853637695312	0.37726312255859373	0		-0.6421158447265625	-2.511096923828125	0		1.81920361328125	0.04005414962768555	0		3.369531005859375	0.5919579467773437	0		4.76778173828125	0.24417138671875	0		5.92904541015625	0.3917843933105469	0		-0.22500453186035158	5.9574658203125	0		
0.0018088380098342895	-0.0037554008960723876	0		0.35929293823242187	-2.29773681640625	0		-0.920336181640625	0.3859028625488281	0		-0.6194010009765625	-2.5299267578125	0		1.81446435546875	0.04589386749267578	0		3.404729248046875	0.5948770751953125	0		4.776177734375	0.2557317962646484	0		5.93286279296875	0.40846456909179685	0		-0.2097316436767578	5.9658193359375	0		
0.00808270263671875	0.002813906908035278	0		0.38946917724609376	-2.296722900390625	0		-0.9941849975585938	0.388332275390625	0		-0.6521348876953125	-2.524452880859375	0		1.8079747314453125	0.06278446960449219	0		3.396140625	0.6078333740234375	0		4.772521484375	0.26558746337890626	0		5.9407861328125	0.4076366271972656	0		-0.22489279174804688	5.956880859375	0		
-0.007737751007080078	0.005902490139007568	0		0.4026255798339844	-2.2963056640625	0		-0.94028662109375	0.37877587890625	0		-0.6488792724609375	-2.519817626953125	0		1.8180997314453125	0.06329119110107422	0		3.396237548828125	0.6075955200195312	0		4.772623046875	0.2653684692382812	0		5.92928662109375	0.39063735961914064	0		-0.22486904907226563	5.95659375	0		
0.0021250669956207275	-0.004607126235961914	0		0.37683877563476564	-2.29297216796875	0		-1.014150390625	0.38120791625976563	0		-0.6420447387695313	-2.5332666015625	0		1.8223831787109375	0.07094622802734375	0		3.400465576171875	0.6132766723632812	0		4.78755029296875	0.25781878662109375	0		5.93720068359375	0.3898780822753906	0		-0.23911940002441406	5.945640625	0		
0.002218381881713867	-0.004880002021789551	0		0.3769751892089844	-2.293238037109375	0		-0.9401077270507813	0.37819113159179685	0		-0.634208984375	-2.546734619140625	0		1.8176163330078126	0.07682256317138672	0		3.40468603515625	0.618972900390625	0		4.78180322265625	0.26477401733398437	0		5.93315478515625	0.4071380310058594	0		-0.22488552856445312	5.9560341796875	0		
-0.007457713127136231	0.005084202766418457	0		0.32835916137695315	-2.282357421875	0		-1.0450924072265626	0.3763512878417969	0		-0.6361117553710938	-2.54896728515625	0		1.82665380859375	0.07438677215576171	0		3.421175537109375	0.6364030151367187	0		4.80501904296875	0.2700740966796875	0		5.94106201171875	0.40645809936523436	0		-0.21067373657226562	5.96643408203125	0		
-0.0012125200033187866	0.011684441566467285	0		0.40833807373046876	-2.290467041015625	0		-0.9399529418945313	0.3776235656738281	0		-0.6370112915039062	-2.55121728515625	0		1.82496923828125	0.0842173843383789	0		3.417221923828125	0.6353223266601562	0		4.8002841796875	0.2780482177734375	0		5.94112158203125	0.4062659912109375	0		-0.22498838806152344	5.95549951171875	0		
0.002472520112991333	-0.005653804779052735	0		0.3545671081542969	-2.28645166015625	0		-1.013838623046875	0.38006707763671876	0		-0.6429971923828125	-2.557343505859375	0		1.85792333984375	0.07825244140625	0		3.447417236328125	0.6404680786132813	0		4.80205517578125	0.26488800048828126	0		5.94353466796875	0.4284830322265625	0		-0.22507138061523438	5.95524365234375	0		
-0.007211653232574463	0.004333285808563232	0		0.39573040771484375	-2.286634765625	0		-0.943904296875	0.37317044067382815	0		-0.650021484375	-2.565441162109375	0		1.8652088623046874	0.08690229034423828	0		3.41278955078125	0.654140380859375	0		4.816263671875	0.27046664428710937	0		5.94835205078125	0.40388754272460936	0		-0.2251734619140625	5.954994140625	0		
0.002636457920074463	-0.006132081031799317	0		0.35283251953125	-2.288860107421875	0		-1.0078170776367188	0.37438546752929686	0		-0.6324129638671875	-2.59010986328125	0		1.86528857421875	0.08672936248779296	0		3.425846435546875	0.6537185668945312	0		4.8163369140625	0.27039361572265624	0		5.941296875	0.405960693359375	0		-0.2243158416748047	5.9537275390625	0		
